<svg id="visual" viewBox="0 0 900 200" width="900" height="200" xmlns="http://www.w3.org/2000/svg" xmlns:xlink="http://www.w3.org/1999/xlink" version="1.1"><path d="M0 127L25 125.2C50 123.3 100 119.7 150 117.7C200 115.7 250 115.3 300 123.2C350 131 400 147 450 149.8C500 152.7 550 142.3 600 140.5C650 138.7 700 145.3 750 149.3C800 153.3 850 154.7 875 155.3L900 156L900 201L875 201C850 201 800 201 750 201C700 201 650 201 600 201C550 201 500 201 450 201C400 201 350 201 300 201C250 201 200 201 150 201C100 201 50 201 25 201L0 201Z" fill="#2E3440" stroke-linecap="round" stroke-linejoin="miter"></path></svg>