<?xml version="1.0" encoding="UTF-8"?>
<svg xmlns="http://www.w3.org/2000/svg" xmlns:xlink="http://www.w3.org/1999/xlink" width="48px" height="48px" viewBox="0 0 48 48" version="1.1">
<g id="surface1">
<path style=" stroke:none;fill-rule:nonzero;fill:rgb(69.803922%,44.705882%,7.843137%);fill-opacity:1;" d="M 43.257812 34.957031 C 46.648438 34.617188 48.40625 38.871094 45.75 41 C 45.148438 41.480469 44.53125 41.9375 43.890625 42.367188 Z M 43.257812 34.957031 "/>
<path style=" stroke:none;fill-rule:nonzero;fill:rgb(69.803922%,44.705882%,7.843137%);fill-opacity:1;" d="M 7 2.25 C 9.128906 -0.40625 13.382812 1.351562 13.042969 4.738281 C 12.949219 5.65625 12.902344 6.585938 12.902344 7.527344 L 5.09375 4.945312 C 5.675781 4.007812 6.3125 3.109375 7 2.25 Z M 7 2.25 "/>
<path style=" stroke:none;fill-rule:nonzero;fill:rgb(96.862745%,69.803922%,22.352941%);fill-opacity:1;" d="M 43.257812 34.957031 L 43.890625 42.367188 C 39.5 45.320312 34.214844 47.042969 28.527344 47.042969 C 13.257812 47.042969 0.957031 34.742188 0.957031 19.476562 C 0.957031 14.140625 2.472656 9.164062 5.09375 4.945312 L 12.902344 7.527344 C 12.902344 22.742188 25.257812 35.097656 40.472656 35.097656 C 41.414062 35.097656 42.34375 35.050781 43.257812 34.957031 Z M 43.257812 34.957031 "/>
<path style=" stroke:none;fill-rule:nonzero;fill:rgb(87.843137%,60.784314%,17.647059%);fill-opacity:1;" d="M 6.890625 19.476562 C 6.890625 14.820312 8.042969 10.4375 10.078125 6.59375 L 5.09375 4.945312 C 2.472656 9.164062 0.957031 14.140625 0.957031 19.476562 C 0.957031 34.742188 13.257812 47.042969 28.527344 47.042969 C 29.527344 47.042969 30.515625 46.988281 31.488281 46.886719 C 17.625 45.410156 6.890625 33.738281 6.890625 19.476562 Z M 6.890625 19.476562 "/>
<path style=" stroke:none;fill-rule:nonzero;fill:rgb(100%,100%,100%);fill-opacity:1;" d="M 31.957031 37.789062 C 31.867188 37.789062 31.777344 37.777344 31.6875 37.75 C 26.644531 36.289062 21.992188 33.53125 18.230469 29.769531 C 14.003906 25.542969 11.082031 20.261719 9.78125 14.492188 C 9.667969 13.976562 9.988281 13.464844 10.503906 13.351562 C 11.019531 13.234375 11.53125 13.558594 11.648438 14.074219 C 12.867188 19.484375 15.613281 24.445312 19.582031 28.417969 C 23.117188 31.949219 27.488281 34.542969 32.222656 35.910156 C 32.730469 36.058594 33.019531 36.589844 32.875 37.097656 C 32.753906 37.515625 32.371094 37.789062 31.957031 37.789062 Z M 31.957031 37.789062 "/>
<path style=" stroke:none;fill-rule:nonzero;fill:rgb(100%,100%,100%);fill-opacity:1;" d="M 10.980469 10.132812 C 10.980469 10.660156 10.550781 11.089844 10.023438 11.089844 C 9.492188 11.089844 9.066406 10.660156 9.066406 10.132812 C 9.066406 9.605469 9.492188 9.175781 10.023438 9.175781 C 10.550781 9.175781 10.980469 9.605469 10.980469 10.132812 Z M 10.980469 10.132812 "/>
<path style=" stroke:none;fill-rule:nonzero;fill:rgb(20%,20%,20%);fill-opacity:1;" d="M 47.664062 36.703125 C 46.914062 34.863281 45.144531 33.804688 43.164062 34.007812 C 42.277344 34.09375 41.371094 34.140625 40.472656 34.140625 C 33.367188 34.140625 26.6875 31.371094 21.65625 26.34375 C 16.628906 21.3125 13.859375 14.632812 13.859375 7.527344 C 13.859375 6.628906 13.90625 5.722656 13.996094 4.835938 C 14.195312 2.851562 13.136719 1.085938 11.296875 0.335938 C 9.46875 -0.410156 7.488281 0.105469 6.25 1.652344 C 2.21875 6.683594 0 13.015625 0 19.476562 C 0 27.113281 2.960938 34.285156 8.339844 39.660156 C 13.714844 45.039062 20.886719 48 28.523438 48 C 34.984375 48 41.316406 45.78125 46.347656 41.75 C 47.894531 40.511719 48.410156 38.53125 47.664062 36.703125 Z M 7.746094 2.847656 C 8.292969 2.167969 8.976562 1.917969 9.609375 1.917969 C 9.957031 1.917969 10.289062 1.992188 10.574219 2.109375 C 11.394531 2.445312 12.226562 3.289062 12.089844 4.644531 C 12.039062 5.164062 12 5.6875 11.976562 6.214844 L 6.574219 4.425781 C 6.945312 3.890625 7.332031 3.363281 7.746094 2.847656 Z M 9.691406 38.308594 C 4.675781 33.292969 1.914062 26.601562 1.914062 19.476562 C 1.914062 14.691406 3.148438 10.128906 5.511719 6.089844 L 11.953125 8.222656 C 12.128906 15.578125 15.078125 22.46875 20.304688 27.695312 C 25.695312 33.085938 32.855469 36.054688 40.472656 36.054688 C 41.109375 36.054688 41.75 36.03125 42.386719 35.988281 L 42.890625 41.882812 C 38.613281 44.640625 33.699219 46.085938 28.523438 46.085938 C 21.394531 46.085938 14.707031 43.324219 9.691406 38.308594 Z M 45.152344 40.253906 C 45 40.375 44.851562 40.492188 44.699219 40.609375 L 44.308594 35.984375 C 45.117188 36.203125 45.644531 36.816406 45.890625 37.425781 C 46.222656 38.238281 46.203125 39.410156 45.152344 40.253906 Z M 45.152344 40.253906 "/>
<path style=" stroke:none;fill-rule:nonzero;fill:rgb(20%,20%,20%);fill-opacity:1;" d="M 36.199219 40.515625 C 35.476562 40.574219 34.738281 40.605469 34.007812 40.605469 C 26.878906 40.605469 20.191406 37.84375 15.175781 32.824219 C 10.15625 27.808594 7.394531 21.121094 7.394531 13.992188 C 7.394531 12.9375 7.457031 11.875 7.582031 10.835938 C 7.644531 10.3125 7.265625 9.835938 6.742188 9.773438 C 6.21875 9.710938 5.742188 10.085938 5.679688 10.613281 C 5.550781 11.726562 5.480469 12.863281 5.480469 13.992188 C 5.480469 21.632812 8.445312 28.800781 13.820312 34.179688 C 19.199219 39.554688 26.367188 42.519531 34.007812 42.519531 C 34.789062 42.519531 35.578125 42.484375 36.355469 42.421875 C 36.882812 42.378906 37.273438 41.917969 37.230469 41.390625 C 37.1875 40.863281 36.726562 40.472656 36.199219 40.515625 Z M 36.199219 40.515625 "/>
</g>
</svg>
