<svg id="visual" viewBox="0 0 900 300" width="900" height="300" xmlns="http://www.w3.org/2000/svg" xmlns:xlink="http://www.w3.org/1999/xlink" version="1.1"><path d="M0 250L25 250.8C50 251.7 100 253.3 150 251.7C200 250 250 245 300 237.2C350 229.3 400 218.7 450 211.5C500 204.3 550 200.7 600 203C650 205.3 700 213.7 750 221.8C800 230 850 238 875 242L900 246L900 301L875 301C850 301 800 301 750 301C700 301 650 301 600 301C550 301 500 301 450 301C400 301 350 301 300 301C250 301 200 301 150 301C100 301 50 301 25 301L0 301Z" fill="#2E3440" stroke-linecap="round" stroke-linejoin="miter"></path></svg>