<svg id="visual" viewBox="0 0 900 300" width="900" height="300" xmlns="http://www.w3.org/2000/svg" xmlns:xlink="http://www.w3.org/1999/xlink" version="1.1"><path d="M0 228L25 233.5C50 239 100 250 150 252.2C200 254.3 250 247.7 300 241.5C350 235.3 400 229.7 450 227.3C500 225 550 226 600 230.5C650 235 700 243 750 242C800 241 850 231 875 226L900 221L900 301L875 301C850 301 800 301 750 301C700 301 650 301 600 301C550 301 500 301 450 301C400 301 350 301 300 301C250 301 200 301 150 301C100 301 50 301 25 301L0 301Z" fill="#2E3440" stroke-linecap="round" stroke-linejoin="miter"></path></svg>