<svg id="visual" viewBox="0 0 900 300" width="900" height="300" xmlns="http://www.w3.org/2000/svg" xmlns:xlink="http://www.w3.org/1999/xlink" version="1.1"><path d="M0 169L21.5 154C43 139 86 109 128.8 112.2C171.7 115.3 214.3 151.7 257.2 142C300 132.3 343 76.7 385.8 67.2C428.7 57.7 471.3 94.3 514.2 99.5C557 104.7 600 78.3 642.8 71.2C685.7 64 728.3 76 771.2 94.7C814 113.3 857 138.7 878.5 151.3L900 164L900 0L878.5 0C857 0 814 0 771.2 0C728.3 0 685.7 0 642.8 0C600 0 557 0 514.2 0C471.3 0 428.7 0 385.8 0C343 0 300 0 257.2 0C214.3 0 171.7 0 128.8 0C86 0 43 0 21.5 0L0 0Z" fill="#2E3440" stroke-linecap="round" stroke-linejoin="miter"></path></svg>